<svg width="135" height="40" viewBox="0 0 135 40" fill="none" xmlns="http://www.w3.org/2000/svg">
<g clip-path="url(#clip0_1_27324)">
<rect x="0.500061" y="0.506104" width="134" height="39" rx="5.5" stroke="#007BFF"/>
<path d="M68.1361 21.7572C65.7841 21.7572 63.8671 23.5462 63.8671 26.0102C63.8671 28.4592 65.7841 30.2632 68.1361 30.2632C70.4891 30.2632 72.4061 28.4592 72.4061 26.0102C72.4051 23.5462 70.4881 21.7572 68.1361 21.7572ZM68.1361 28.5892C66.8471 28.5892 65.7361 27.5262 65.7361 26.0112C65.7361 24.4802 66.8481 23.4332 68.1361 23.4332C69.4251 23.4332 70.5361 24.4802 70.5361 26.0112C70.5361 27.5252 69.4251 28.5892 68.1361 28.5892ZM58.8221 21.7572C56.4701 21.7572 54.5531 23.5462 54.5531 26.0102C54.5531 28.4592 56.4701 30.2632 58.8221 30.2632C61.1751 30.2632 63.0921 28.4592 63.0921 26.0102C63.0921 23.5462 61.1751 21.7572 58.8221 21.7572ZM58.8221 28.5892C57.5331 28.5892 56.4221 27.5262 56.4221 26.0112C56.4221 24.4802 57.5341 23.4332 58.8221 23.4332C60.1111 23.4332 61.2221 24.4802 61.2221 26.0112C61.2231 27.5252 60.1111 28.5892 58.8221 28.5892ZM47.7441 23.0632V24.8672H52.0621C51.9331 25.8822 51.5951 26.6232 51.0791 27.1382C50.4511 27.7662 49.4681 28.4592 47.7441 28.4592C45.0861 28.4592 43.0081 26.3162 43.0081 23.6582C43.0081 21.0002 45.0861 18.8572 47.7441 18.8572C49.1781 18.8572 50.2251 19.4212 50.9981 20.1462L52.2711 18.8732C51.1911 17.8422 49.7581 17.0532 47.7441 17.0532C44.1031 17.0532 41.0421 20.0172 41.0421 23.6582C41.0421 27.2992 44.1031 30.2632 47.7441 30.2632C49.7091 30.2632 51.1921 29.6182 52.3511 28.4102C53.5431 27.2182 53.9141 25.5422 53.9141 24.1892C53.9141 23.7712 53.8821 23.3842 53.8171 23.0622H47.7441V23.0632ZM93.0521 24.4642C92.6981 23.5142 91.6181 21.7572 89.4111 21.7572C87.2201 21.7572 85.3991 23.4812 85.3991 26.0102C85.3991 28.3942 87.2041 30.2632 89.6201 30.2632C91.5691 30.2632 92.6971 29.0712 93.1651 28.3782L91.715 27.4112C91.232 28.1202 90.5711 28.5872 89.6201 28.5872C88.6701 28.5872 87.9931 28.1522 87.5581 27.2982L93.2451 24.9462L93.0521 24.4642ZM87.2521 25.8822C87.2041 24.2382 88.5251 23.4012 89.4761 23.4012C90.2171 23.4012 90.8451 23.7722 91.0551 24.3032L87.2521 25.8822ZM82.6291 30.0062H84.4971V17.5052H82.6291V30.0062ZM79.5671 22.7082H79.5031C79.0841 22.2082 78.2781 21.7572 77.2641 21.7572C75.1371 21.7572 73.1881 23.6262 73.1881 26.0272C73.1881 28.4112 75.1371 30.2642 77.2641 30.2642C78.2791 30.2642 79.0841 29.8132 79.5031 29.2982H79.5671V29.9102C79.5671 31.5372 78.6971 32.4072 77.2961 32.4072C76.1521 32.4072 75.4431 31.5862 75.1531 30.8932L73.5261 31.5702C73.9931 32.6972 75.2331 34.0832 77.2961 34.0832C79.4871 34.0832 81.34 32.7942 81.34 29.6522V22.0162H79.5681V22.7082H79.5671ZM77.4251 28.5892C76.1361 28.5892 75.0571 27.5092 75.0571 26.0272C75.0571 24.5282 76.1361 23.4332 77.4251 23.4332C78.6971 23.4332 79.6961 24.5282 79.6961 26.0272C79.6961 27.5092 78.6971 28.5892 77.4251 28.5892ZM101.806 17.5052H97.3351V30.0062H99.2001V25.2702H101.805C103.873 25.2702 105.907 23.7732 105.907 21.3882C105.907 19.0032 103.874 17.5052 101.806 17.5052ZM101.854 23.5302H99.2001V19.2452H101.854C103.249 19.2452 104.041 20.4002 104.041 21.3882C104.041 22.3562 103.249 23.5302 101.854 23.5302ZM113.386 21.7352C112.035 21.7352 110.636 22.3302 110.057 23.6492L111.713 24.3402C112.067 23.6492 112.727 23.4232 113.418 23.4232C114.383 23.4232 115.364 24.0022 115.38 25.0312V25.1602C115.042 24.9672 114.318 24.6782 113.434 24.6782C111.649 24.6782 109.831 25.6592 109.831 27.4922C109.831 29.1652 111.295 30.2422 112.935 30.2422C114.189 30.2422 114.881 29.6792 115.315 29.0192H115.379V29.9842H117.181V25.1912C117.182 22.9732 115.524 21.7352 113.386 21.7352ZM113.16 28.5862C112.55 28.5862 111.697 28.2802 111.697 27.5242C111.697 26.5592 112.759 26.1892 113.676 26.1892C114.495 26.1892 114.882 26.3662 115.38 26.6072C115.235 27.7662 114.238 28.5862 113.16 28.5862ZM123.743 22.0082L121.604 27.4282H121.54L119.32 22.0082H117.31L120.639 29.5832L118.741 33.7972H120.687L125.818 22.0082H123.743ZM106.937 30.0062H108.802V17.5052H106.937V30.0062Z" fill="#007BFF"/>
<path d="M47.4181 10.249C47.4181 11.087 47.1701 11.754 46.6731 12.252C46.1091 12.844 45.3731 13.14 44.4691 13.14C43.6031 13.14 42.8661 12.84 42.2611 12.24C41.6551 11.639 41.3521 10.895 41.3521 10.007C41.3521 9.11805 41.6551 8.37405 42.2611 7.77405C42.8661 7.17305 43.6031 6.87305 44.4691 6.87305C44.8991 6.87305 45.3101 6.95705 45.7001 7.12405C46.0911 7.29205 46.4041 7.51505 46.6381 7.79405L46.1111 8.32205C45.7141 7.84705 45.1671 7.61005 44.4681 7.61005C43.8361 7.61005 43.2901 7.83205 42.8291 8.27605C42.3681 8.72005 42.1381 9.29705 42.1381 10.006C42.1381 10.715 42.3681 11.292 42.8291 11.736C43.2901 12.18 43.8361 12.402 44.4681 12.402C45.1381 12.402 45.6971 12.179 46.1441 11.732C46.4341 11.441 46.6021 11.036 46.6471 10.517H44.4681V9.79605H47.3751C47.4051 9.95305 47.4181 10.104 47.4181 10.249Z" fill="#007BFF"/>
<path d="M52.0282 7.7431H49.2962V9.6451H51.7602V10.3661H49.2962V12.2681H52.0282V13.0061H48.5252V7.0061H52.0282V7.7431Z" fill="#007BFF"/>
<path d="M55.2791 13.0061H54.5081V7.7431H52.8321V7.0061H56.9551V7.7431H55.2791V13.0061Z" fill="#007BFF"/>
<path d="M59.9381 13.0061V7.0061H60.709V13.0061H59.9381Z" fill="#007BFF"/>
<path d="M64.1282 13.0061H63.3572V7.7431H61.6812V7.0061H65.8042V7.7431H64.1282V13.0061Z" fill="#007BFF"/>
<path d="M73.609 12.2311C73.019 12.8371 72.286 13.1401 71.409 13.1401C70.532 13.1401 69.799 12.8371 69.21 12.2311C68.62 11.6251 68.326 10.8831 68.326 10.0061C68.326 9.12909 68.62 8.38709 69.21 7.78109C69.799 7.17509 70.532 6.87109 71.409 6.87109C72.281 6.87109 73.013 7.17609 73.605 7.78509C74.197 8.39409 74.493 9.13409 74.493 10.0061C74.493 10.8831 74.198 11.6251 73.609 12.2311ZM69.779 11.7281C70.223 12.1781 70.766 12.4021 71.409 12.4021C72.052 12.4021 72.596 12.1771 73.039 11.7281C73.483 11.2781 73.706 10.7041 73.706 10.0061C73.706 9.30809 73.483 8.73409 73.039 8.28409C72.596 7.83409 72.052 7.61009 71.409 7.61009C70.766 7.61009 70.223 7.83509 69.779 8.28409C69.336 8.73409 69.113 9.30809 69.113 10.0061C69.113 10.7041 69.336 11.2781 69.779 11.7281Z" fill="#007BFF"/>
<path d="M75.575 13.0061V7.0061H76.513L79.429 11.6731H79.462L79.429 10.5171V7.0061H80.2V13.0061H79.395L76.344 8.1121H76.311L76.344 9.2681V13.0061H75.575Z" fill="#007BFF"/>
<path d="M47.4181 10.249C47.4181 11.087 47.1701 11.754 46.6731 12.252C46.1091 12.844 45.3731 13.14 44.4691 13.14C43.6031 13.14 42.8661 12.84 42.2611 12.24C41.6551 11.639 41.3521 10.895 41.3521 10.007C41.3521 9.11805 41.6551 8.37405 42.2611 7.77405C42.8661 7.17305 43.6031 6.87305 44.4691 6.87305C44.8991 6.87305 45.3101 6.95705 45.7001 7.12405C46.0911 7.29205 46.4041 7.51505 46.6381 7.79405L46.1111 8.32205C45.7141 7.84705 45.1671 7.61005 44.4681 7.61005C43.8361 7.61005 43.2901 7.83205 42.8291 8.27605C42.3681 8.72005 42.1381 9.29705 42.1381 10.006C42.1381 10.715 42.3681 11.292 42.8291 11.736C43.2901 12.18 43.8361 12.402 44.4681 12.402C45.1381 12.402 45.6971 12.179 46.1441 11.732C46.4341 11.441 46.6021 11.036 46.6471 10.517H44.4681V9.79605H47.3751C47.4051 9.95305 47.4181 10.104 47.4181 10.249Z" stroke="#007BFF" stroke-width="0.2" stroke-miterlimit="10"/>
<path d="M52.0282 7.7431H49.2962V9.6451H51.7602V10.3661H49.2962V12.2681H52.0282V13.0061H48.5252V7.0061H52.0282V7.7431Z" stroke="#007BFF" stroke-width="0.2" stroke-miterlimit="10"/>
<path d="M55.2791 13.0061H54.5081V7.7431H52.8321V7.0061H56.9551V7.7431H55.2791V13.0061Z" stroke="#007BFF" stroke-width="0.2" stroke-miterlimit="10"/>
<path d="M59.9381 13.0061V7.0061H60.709V13.0061H59.9381Z" stroke="#007BFF" stroke-width="0.2" stroke-miterlimit="10"/>
<path d="M64.1282 13.0061H63.3572V7.7431H61.6812V7.0061H65.8042V7.7431H64.1282V13.0061Z" stroke="#007BFF" stroke-width="0.2" stroke-miterlimit="10"/>
<path d="M73.609 12.2311C73.019 12.8371 72.286 13.1401 71.409 13.1401C70.532 13.1401 69.799 12.8371 69.21 12.2311C68.62 11.6251 68.326 10.8831 68.326 10.0061C68.326 9.12909 68.62 8.38709 69.21 7.78109C69.799 7.17509 70.532 6.87109 71.409 6.87109C72.281 6.87109 73.013 7.17609 73.605 7.78509C74.197 8.39409 74.493 9.13409 74.493 10.0061C74.493 10.8831 74.198 11.6251 73.609 12.2311ZM69.779 11.7281C70.223 12.1781 70.766 12.4021 71.409 12.4021C72.052 12.4021 72.596 12.1771 73.039 11.7281C73.483 11.2781 73.706 10.7041 73.706 10.0061C73.706 9.30809 73.483 8.73409 73.039 8.28409C72.596 7.83409 72.052 7.61009 71.409 7.61009C70.766 7.61009 70.223 7.83509 69.779 8.28409C69.336 8.73409 69.113 9.30809 69.113 10.0061C69.113 10.7041 69.336 11.2781 69.779 11.7281Z" stroke="#007BFF" stroke-width="0.2" stroke-miterlimit="10"/>
<path d="M75.575 13.0061V7.0061H76.513L79.429 11.6731H79.462L79.429 10.5171V7.0061H80.2V13.0061H79.395L76.344 8.1121H76.311L76.344 9.2681V13.0061H75.575Z" stroke="#007BFF" stroke-width="0.2" stroke-miterlimit="10"/>
<path fill-rule="evenodd" clip-rule="evenodd" d="M10.1564 7.97252C10.0383 8.24002 9.97305 8.56779 9.97305 8.94904V31.065C9.97305 31.4471 10.0384 31.7749 10.1566 32.0423L22.1906 20.0067L10.1564 7.97252ZM10.8516 32.7615C11.2977 32.9524 11.8796 32.8919 12.5141 32.5321L26.6712 24.4873L22.8977 20.7138L10.8516 32.7615ZM27.5736 23.9755L32.015 21.452C33.412 20.657 33.412 19.3581 32.015 18.564L27.5716 16.0392L23.6047 20.0066L27.5736 23.9755ZM26.6698 15.5268L12.5141 7.48305C11.8795 7.12247 11.2976 7.06231 10.8516 7.25345L22.8976 19.2995L26.6698 15.5268Z" fill="#007BFF"/>
</g>
<defs>
<clipPath id="clip0_1_27324">
<rect width="135" height="40" fill="white" transform="translate(6.10352e-05 0.00610352)"/>
</clipPath>
</defs>
</svg>
