<svg width="24" height="25" viewBox="0 0 24 25" fill="none" xmlns="http://www.w3.org/2000/svg">
<g clip-path="url(#clip0_1_27360)">
<path d="M24 12.301C24 5.6736 18.6274 0.301025 12 0.301025C5.37258 0.301025 0 5.6736 0 12.301C0 18.2905 4.3882 23.255 10.125 24.1552V15.7698H7.07812V12.301H10.125V9.65728C10.125 6.64978 11.9166 4.98853 14.6576 4.98853C15.9701 4.98853 17.3438 5.2229 17.3438 5.2229V8.17603H15.8306C14.34 8.17603 13.875 9.1011 13.875 10.051V12.301H17.2031L16.6711 15.7698H13.875V24.1552C19.6118 23.255 24 18.2905 24 12.301Z" fill="#007BFF"/>
</g>
<defs>
<clipPath id="clip0_1_27360">
<rect width="24" height="24" fill="white" transform="translate(0 0.301025)"/>
</clipPath>
</defs>
</svg>
