<svg width="24" height="25" viewBox="0 0 24 25" fill="none" xmlns="http://www.w3.org/2000/svg">
<path d="M12 2.46196C15.2063 2.46196 15.5859 2.47603 16.8469 2.53228C18.0188 2.58384 18.6516 2.78071 19.0734 2.94478C19.6313 3.1604 20.0344 3.4229 20.4516 3.84009C20.8734 4.26196 21.1313 4.6604 21.3469 5.21821C21.5109 5.64009 21.7078 6.27759 21.7594 7.44478C21.8156 8.7104 21.8297 9.09009 21.8297 12.2917C21.8297 15.4979 21.8156 15.8776 21.7594 17.1385C21.7078 18.3104 21.5109 18.9432 21.3469 19.3651C21.1313 19.9229 20.8687 20.326 20.4516 20.7432C20.0297 21.1651 19.6313 21.4229 19.0734 21.6385C18.6516 21.8026 18.0141 21.9995 16.8469 22.051C15.5813 22.1073 15.2016 22.1213 12 22.1213C8.79375 22.1213 8.41406 22.1073 7.15313 22.051C5.98125 21.9995 5.34844 21.8026 4.92656 21.6385C4.36875 21.4229 3.96563 21.1604 3.54844 20.7432C3.12656 20.3213 2.86875 19.9229 2.65313 19.3651C2.48906 18.9432 2.29219 18.3057 2.24063 17.1385C2.18438 15.8729 2.17031 15.4932 2.17031 12.2917C2.17031 9.0854 2.18438 8.70571 2.24063 7.44478C2.29219 6.2729 2.48906 5.64009 2.65313 5.21821C2.86875 4.6604 3.13125 4.25728 3.54844 3.84009C3.97031 3.41821 4.36875 3.1604 4.92656 2.94478C5.34844 2.78071 5.98594 2.58384 7.15313 2.53228C8.41406 2.47603 8.79375 2.46196 12 2.46196ZM12 0.301025C8.74219 0.301025 8.33438 0.315088 7.05469 0.371338C5.77969 0.427588 4.90313 0.633838 4.14375 0.92915C3.35156 1.23853 2.68125 1.64634 2.01563 2.31665C1.34531 2.98228 0.9375 3.65259 0.628125 4.44009C0.332812 5.20415 0.126563 6.07603 0.0703125 7.35103C0.0140625 8.6354 0 9.04321 0 12.301C0 15.5588 0.0140625 15.9667 0.0703125 17.2463C0.126563 18.5213 0.332812 19.3979 0.628125 20.1573C0.9375 20.9495 1.34531 21.6198 2.01563 22.2854C2.68125 22.951 3.35156 23.3635 4.13906 23.6682C4.90313 23.9635 5.775 24.1698 7.05 24.226C8.32969 24.2823 8.7375 24.2963 11.9953 24.2963C15.2531 24.2963 15.6609 24.2823 16.9406 24.226C18.2156 24.1698 19.0922 23.9635 19.8516 23.6682C20.6391 23.3635 21.3094 22.951 21.975 22.2854C22.6406 21.6198 23.0531 20.9495 23.3578 20.162C23.6531 19.3979 23.8594 18.526 23.9156 17.251C23.9719 15.9713 23.9859 15.5635 23.9859 12.3057C23.9859 9.0479 23.9719 8.64009 23.9156 7.3604C23.8594 6.0854 23.6531 5.20884 23.3578 4.44946C23.0625 3.65259 22.6547 2.98228 21.9844 2.31665C21.3188 1.65103 20.6484 1.23853 19.8609 0.933838C19.0969 0.638525 18.225 0.432275 16.95 0.376025C15.6656 0.315088 15.2578 0.301025 12 0.301025Z" fill="#007BFF"/>
<path d="M12 6.13696C8.59688 6.13696 5.83594 8.8979 5.83594 12.301C5.83594 15.7042 8.59688 18.4651 12 18.4651C15.4031 18.4651 18.1641 15.7042 18.1641 12.301C18.1641 8.8979 15.4031 6.13696 12 6.13696ZM12 16.2995C9.79219 16.2995 8.00156 14.5088 8.00156 12.301C8.00156 10.0932 9.79219 8.30259 12 8.30259C14.2078 8.30259 15.9984 10.0932 15.9984 12.301C15.9984 14.5088 14.2078 16.2995 12 16.2995Z" fill="#007BFF"/>
<path d="M19.8469 5.89317C19.8469 6.69004 19.2 7.33223 18.4078 7.33223C17.6109 7.33223 16.9688 6.68535 16.9688 5.89317C16.9688 5.09629 17.6156 4.4541 18.4078 4.4541C19.2 4.4541 19.8469 5.10098 19.8469 5.89317Z" fill="#007BFF"/>
</svg>
