<svg width="24" height="25" viewBox="0 0 24 25" fill="none" xmlns="http://www.w3.org/2000/svg">
<g clip-path="url(#clip0_1_27359)">
<path d="M22.2234 0.301025H1.77187C0.792187 0.301025 0 1.07446 0 2.03071V22.5667C0 23.5229 0.792187 24.301 1.77187 24.301H22.2234C23.2031 24.301 24 23.5229 24 22.5713V2.03071C24 1.07446 23.2031 0.301025 22.2234 0.301025ZM7.12031 20.7526H3.55781V9.29634H7.12031V20.7526ZM5.33906 7.7354C4.19531 7.7354 3.27188 6.81196 3.27188 5.6729C3.27188 4.53384 4.19531 3.6104 5.33906 3.6104C6.47813 3.6104 7.40156 4.53384 7.40156 5.6729C7.40156 6.80728 6.47813 7.7354 5.33906 7.7354ZM20.4516 20.7526H16.8937V15.1838C16.8937 13.8573 16.8703 12.1463 15.0422 12.1463C13.1906 12.1463 12.9094 13.5948 12.9094 15.0901V20.7526H9.35625V9.29634H12.7687V10.862H12.8156C13.2891 9.96196 14.4516 9.0104 16.1813 9.0104C19.7859 9.0104 20.4516 11.3823 20.4516 14.4667V20.7526Z" fill="#007BFF"/>
</g>
<defs>
<clipPath id="clip0_1_27359">
<rect width="24" height="24" fill="white" transform="translate(0 0.301025)"/>
</clipPath>
</defs>
</svg>
