<svg width="135" height="40" viewBox="0 0 135 40" fill="none" xmlns="http://www.w3.org/2000/svg">
<rect x="0.500061" y="0.506104" width="134" height="39" rx="5.5" stroke="#007BFF"/>
<path d="M32.3381 19.3326C32.3489 18.4705 32.5719 17.6253 32.9862 16.8754C33.4006 16.1256 33.993 15.4957 34.7081 15.0441C34.2538 14.3777 33.6544 13.8294 32.9577 13.4425C32.2609 13.0556 31.4858 12.841 30.6941 12.8155C29.0053 12.6335 27.368 13.8534 26.5074 13.8534C25.6302 13.8534 24.3051 12.8336 22.8783 12.8637C21.9553 12.8944 21.0559 13.17 20.2675 13.6638C19.4792 14.1575 18.8288 14.8526 18.3798 15.6813C16.4347 19.1397 17.8855 24.2225 19.7487 27.0181C20.681 28.387 21.7704 29.9161 23.196 29.8618C24.591 29.8024 25.112 28.9483 26.7959 28.9483C28.4641 28.9483 28.9529 29.8618 30.4074 29.8274C31.9043 29.8024 32.8474 28.4524 33.7469 27.0705C34.4167 26.0951 34.9321 25.0171 35.274 23.8764C34.4044 23.4986 33.6622 22.8663 33.1401 22.0583C32.618 21.2503 32.3391 20.3023 32.3381 19.3326Z" fill="#007BFF"/>
<path d="M29.5902 10.9745C30.4064 9.96825 30.8085 8.67492 30.7111 7.36914C29.4642 7.50364 28.3124 8.11567 27.4852 9.08329C27.0807 9.556 26.771 10.1059 26.5736 10.7017C26.3762 11.2974 26.2951 11.9272 26.3349 12.5552C26.9586 12.5617 27.5756 12.4229 28.1395 12.1491C28.7034 11.8753 29.1994 11.4737 29.5902 10.9745Z" fill="#007BFF"/>
<path d="M49.9721 26.3695H45.2116L44.0684 29.8362H42.0521L46.5611 17.0101H48.656L53.1651 29.8362H51.1143L49.9721 26.3695ZM45.7047 24.7697H49.4781L47.6179 19.1435H47.5659L45.7047 24.7697Z" fill="#007BFF"/>
<path d="M62.9026 25.1706C62.9026 28.0765 61.3882 29.9436 59.1027 29.9436C58.5238 29.9747 57.948 29.8377 57.4413 29.5484C56.9346 29.259 56.5175 28.829 56.2378 28.3075H56.1945V32.9393H54.3255V20.4945H56.1347V22.0498H56.169C56.4616 21.5308 56.8858 21.103 57.3963 20.8119C57.9069 20.5208 58.4847 20.3773 59.0683 20.3966C61.3793 20.3966 62.9026 22.2727 62.9026 25.1706ZM60.9816 25.1706C60.9816 23.2774 60.0289 22.0327 58.5753 22.0327C57.1472 22.0327 56.1867 23.3036 56.1867 25.1706C56.1867 27.0548 57.1472 28.3166 58.5753 28.3166C60.0289 28.3166 60.9816 27.081 60.9816 25.1706Z" fill="#007BFF"/>
<path d="M72.9231 25.1706C72.9231 28.0765 71.4087 29.9435 69.1232 29.9435C68.5443 29.9747 67.9685 29.8377 67.4618 29.5483C66.9551 29.259 66.538 28.829 66.2583 28.3075H66.215V32.9392H64.346V20.4945H66.1551V22.0498H66.1895C66.4821 21.5308 66.9063 21.103 67.4168 20.8119C67.9273 20.5208 68.5052 20.3773 69.0888 20.3966C71.3998 20.3966 72.9231 22.2727 72.9231 25.1706ZM71.0021 25.1706C71.0021 23.2774 70.0494 22.0327 68.5958 22.0327C67.1677 22.0327 66.2072 23.3036 66.2072 25.1706C66.2072 27.0548 67.1677 28.3166 68.5958 28.3166C70.0494 28.3166 71.0021 27.081 71.0021 25.1706H71.0021Z" fill="#007BFF"/>
<path d="M79.5481 26.2635C79.6866 27.5355 80.8897 28.3706 82.5338 28.3706C84.1092 28.3706 85.2426 27.5354 85.2426 26.3886C85.2426 25.393 84.559 24.7969 82.9404 24.3884L81.3219 23.988C79.0286 23.4191 77.9639 22.3176 77.9639 20.5303C77.9639 18.3173 79.8418 16.7972 82.5083 16.7972C85.1473 16.7972 86.9564 18.3173 87.0173 20.5303H85.1306C85.0177 19.2503 83.9874 18.4777 82.4818 18.4777C80.9761 18.4777 79.9458 19.2594 79.9458 20.3971C79.9458 21.3039 80.6039 21.8375 82.2136 22.246L83.5896 22.593C86.152 23.2153 87.2167 24.2724 87.2167 26.1485C87.2167 28.5481 85.3555 30.051 82.3953 30.051C79.6257 30.051 77.7556 28.5834 77.6348 26.2634L79.5481 26.2635Z" fill="#007BFF"/>
<path d="M91.2509 18.2758V20.4887H92.9825V22.0088H91.2509V27.164C91.2509 27.9649 91.5976 28.3381 92.3588 28.3381C92.5644 28.3344 92.7696 28.3196 92.9736 28.2937V29.8047C92.6314 29.8703 92.2836 29.9001 91.9355 29.8934C90.092 29.8934 89.3731 29.1823 89.3731 27.3688V22.0088H88.0491V20.4887H89.373V18.2758H91.2509Z" fill="#007BFF"/>
<path d="M93.9856 25.1666C93.9856 22.2244 95.6729 20.3755 98.3041 20.3755C100.944 20.3755 102.624 22.2243 102.624 25.1666C102.624 28.1169 100.953 29.9577 98.3041 29.9577C95.6562 29.9577 93.9856 28.1169 93.9856 25.1666ZM100.719 25.1666C100.719 23.1483 99.8186 21.9571 98.3041 21.9571C96.7897 21.9571 95.89 23.1574 95.89 25.1666C95.89 27.193 96.7897 28.3751 98.3041 28.3751C99.8186 28.3751 100.719 27.193 100.719 25.1666H100.719Z" fill="#007BFF"/>
<path d="M104.162 20.4944H105.945V22.086H105.988C106.109 21.5889 106.392 21.1496 106.791 20.8419C107.19 20.5343 107.68 20.377 108.178 20.3965C108.394 20.3958 108.609 20.4198 108.819 20.4681V22.2635C108.547 22.1782 108.263 22.139 107.979 22.1476C107.708 22.1362 107.437 22.1854 107.186 22.2917C106.934 22.3979 106.708 22.5588 106.523 22.7632C106.338 22.9676 106.199 23.2107 106.114 23.4758C106.029 23.7409 106.001 24.0217 106.031 24.299V29.8456H104.162L104.162 20.4944Z" fill="#007BFF"/>
<path d="M117.439 27.0952C117.188 28.7927 115.578 29.9577 113.519 29.9577C110.87 29.9577 109.226 28.1351 109.226 25.211C109.226 22.2778 110.879 20.3755 113.44 20.3755C115.959 20.3755 117.544 22.1527 117.544 24.9881V25.6457H111.112V25.7617C111.083 26.1059 111.125 26.4526 111.236 26.7788C111.346 27.105 111.523 27.4033 111.755 27.6538C111.987 27.9043 112.268 28.1013 112.579 28.2318C112.891 28.3623 113.226 28.4231 113.562 28.4104C114.004 28.4529 114.447 28.3479 114.826 28.1109C115.205 27.8739 115.499 27.5177 115.665 27.0951L117.439 27.0952ZM111.121 24.3042H115.674C115.69 23.9948 115.645 23.6851 115.539 23.3946C115.434 23.1042 115.272 22.8392 115.062 22.6164C114.852 22.3935 114.6 22.2176 114.321 22.0996C114.042 21.9816 113.742 21.9242 113.44 21.9308C113.136 21.929 112.834 21.989 112.552 22.1075C112.271 22.2261 112.015 22.4007 111.799 22.6213C111.584 22.842 111.413 23.1043 111.296 23.3931C111.18 23.682 111.121 23.9916 111.121 24.3042V24.3042Z" fill="#007BFF"/>
<path d="M45.4694 7.36271C45.8613 7.33383 46.2545 7.39462 46.6207 7.5407C46.9869 7.68678 47.3169 7.91451 47.587 8.20746C47.8572 8.5004 48.0606 8.85127 48.1827 9.23474C48.3048 9.61821 48.3425 10.0247 48.2931 10.425C48.2931 12.3939 47.2569 13.5256 45.4694 13.5256H43.3018V7.36271H45.4694ZM44.2339 12.6541H45.3653C45.6453 12.6713 45.9255 12.6241 46.1855 12.5161C46.4455 12.408 46.6788 12.2418 46.8684 12.0294C47.058 11.8171 47.1991 11.5641 47.2814 11.2887C47.3637 11.0133 47.3852 10.7225 47.3443 10.4375C47.3823 10.1537 47.3586 9.86471 47.275 9.59135C47.1914 9.31799 47.05 9.067 46.8608 8.85637C46.6717 8.64573 46.4395 8.48067 46.181 8.37301C45.9224 8.26535 45.6439 8.21775 45.3653 8.23363H44.2339V12.6541Z" fill="#007BFF"/>
<path d="M49.3462 11.2008C49.3177 10.8951 49.3517 10.5867 49.4461 10.2954C49.5405 10.0041 49.6931 9.73619 49.8942 9.50898C50.0953 9.28177 50.3404 9.10023 50.6138 8.976C50.8872 8.85177 51.1829 8.7876 51.4818 8.7876C51.7808 8.7876 52.0765 8.85177 52.3499 8.976C52.6233 9.10023 52.8684 9.28177 53.0695 9.50898C53.2706 9.73619 53.4232 10.0041 53.5176 10.2954C53.612 10.5867 53.646 10.8951 53.6175 11.2008C53.6465 11.5067 53.6129 11.8155 53.5188 12.1073C53.4246 12.3991 53.2721 12.6675 53.071 12.8952C52.8698 13.1228 52.6245 13.3047 52.3509 13.4292C52.0772 13.5537 51.7812 13.618 51.4818 13.618C51.1825 13.618 50.8865 13.5537 50.6128 13.4292C50.3391 13.3047 50.0939 13.1228 49.8927 12.8952C49.6916 12.6675 49.539 12.3991 49.4449 12.1073C49.3508 11.8155 49.3172 11.5067 49.3462 11.2008ZM52.6982 11.2008C52.6982 10.1926 52.2572 9.60305 51.4833 9.60305C50.7064 9.60305 50.2694 10.1926 50.2694 11.2008C50.2694 12.217 50.7065 12.802 51.4833 12.802C52.2573 12.802 52.6982 12.2129 52.6982 11.2008H52.6982Z" fill="#007BFF"/>
<path d="M59.2943 13.532H58.3672L57.4312 10.1066H57.3605L56.4284 13.532H55.5101L54.2618 8.8811H55.1683L55.9796 12.43H56.0464L56.9774 8.8811H57.8348L58.7659 12.43H58.8366L59.644 8.8811H60.5377L59.2943 13.532Z" fill="#007BFF"/>
<path d="M61.588 8.87194H62.4483V9.61078H62.5151C62.6284 9.34542 62.8195 9.12297 63.0617 8.97444C63.304 8.8259 63.5853 8.75869 63.8665 8.78217C64.0869 8.76515 64.3082 8.79927 64.5139 8.882C64.7197 8.96473 64.9047 9.09395 65.0552 9.26008C65.2058 9.4262 65.318 9.62499 65.3836 9.84171C65.4491 10.0584 65.4664 10.2875 65.434 10.512V13.5228H64.5403V10.7425C64.5403 9.99509 64.224 9.62339 63.5631 9.62339C63.4134 9.61624 63.2641 9.64239 63.1253 9.70005C62.9864 9.75772 62.8613 9.84553 62.7586 9.95748C62.6559 10.0694 62.578 10.2029 62.5302 10.3486C62.4824 10.4944 62.4659 10.6491 62.4817 10.802V13.5229H61.588L61.588 8.87194Z" fill="#007BFF"/>
<path d="M66.8575 7.05884H67.7512V13.5253H66.8575V7.05884Z" fill="#007BFF"/>
<path d="M68.9945 11.2006C68.9661 10.8949 69.0001 10.5865 69.0945 10.2952C69.1889 10.0038 69.3416 9.73597 69.5427 9.50875C69.7438 9.28153 69.9889 9.09999 70.2623 8.97576C70.5358 8.85153 70.8315 8.78735 71.1304 8.78735C71.4294 8.78735 71.7251 8.85153 71.9985 8.97576C72.272 9.09999 72.5171 9.28153 72.7182 9.50875C72.9193 9.73597 73.072 10.0038 73.1664 10.2952C73.2607 10.5865 73.2948 10.8949 73.2664 11.2006C73.2953 11.5066 73.2617 11.8154 73.1675 12.1072C73.0734 12.399 72.9208 12.6674 72.7196 12.895C72.5185 13.1227 72.2732 13.3046 71.9995 13.4291C71.7258 13.5535 71.4298 13.6179 71.1304 13.6179C70.8311 13.6179 70.5351 13.5535 70.2614 13.4291C69.9877 13.3046 69.7424 13.1227 69.5412 12.895C69.3401 12.6674 69.1875 12.399 69.0934 12.1072C68.9992 11.8154 68.9655 11.5066 68.9945 11.2006ZM72.3466 11.2006C72.3466 10.1925 71.9056 9.6029 71.1317 9.6029C70.3548 9.6029 69.9178 10.1925 69.9178 11.2006C69.9178 12.2168 70.3548 12.8019 71.1317 12.8019C71.9056 12.8018 72.3466 12.2128 72.3466 11.2006H72.3466Z" fill="#007BFF"/>
<path d="M74.2073 12.213C74.2073 11.3758 74.8143 10.8932 75.8917 10.8246L77.1184 10.752V10.3505C77.1184 9.85929 76.8021 9.58191 76.1912 9.58191C75.6923 9.58191 75.3466 9.77003 75.2474 10.0988H74.3821C74.4735 9.29999 75.2052 8.7876 76.2325 8.7876C77.3678 8.7876 78.0082 9.36807 78.0082 10.3505V13.5283H77.1478V12.8747H77.0771C76.9336 13.1091 76.732 13.3003 76.4931 13.4285C76.2541 13.5568 75.9862 13.6177 75.7168 13.6049C75.5267 13.6252 75.3346 13.6044 75.1528 13.5438C74.971 13.4831 74.8036 13.3841 74.6614 13.2529C74.5191 13.1218 74.4053 12.9615 74.327 12.7824C74.2488 12.6032 74.208 12.4093 74.2073 12.213ZM77.1184 11.8156V11.4267L76.0125 11.4994C75.3888 11.5422 75.1059 11.7601 75.1059 12.1701C75.1059 12.5887 75.4595 12.8323 75.9457 12.8323C76.0882 12.8471 76.2321 12.8323 76.3689 12.7889C76.5056 12.7454 76.6325 12.6741 76.7419 12.5792C76.8513 12.4844 76.941 12.3679 77.0057 12.2367C77.0704 12.1055 77.1087 11.9623 77.1184 11.8156Z" fill="#007BFF"/>
<path d="M79.1846 11.1979C79.1846 9.72826 79.9203 8.79727 81.0645 8.79727C81.3475 8.78388 81.6284 8.8535 81.8743 8.99799C82.1202 9.14248 82.321 9.35588 82.4532 9.61323H82.52V7.05884H83.4138V13.5253H82.5573V12.7905H82.4866C82.3442 13.0461 82.1364 13.2569 81.8857 13.3999C81.6351 13.543 81.351 13.6128 81.0645 13.602C79.9124 13.602 79.1846 12.671 79.1846 11.1979ZM80.1079 11.1979C80.1079 12.1843 80.5607 12.7779 81.3179 12.7779C82.0712 12.7779 82.5367 12.1758 82.5367 11.2019C82.5367 10.2326 82.0663 9.62185 81.3179 9.62185C80.5655 9.62185 80.1079 10.2195 80.1079 11.1979H80.1079Z" fill="#007BFF"/>
<path d="M87.1108 11.2008C87.0823 10.8951 87.1163 10.5867 87.2107 10.2954C87.3051 10.0041 87.4577 9.73619 87.6588 9.50898C87.8599 9.28177 88.105 9.10023 88.3784 8.976C88.6518 8.85177 88.9475 8.7876 89.2464 8.7876C89.5454 8.7876 89.8411 8.85177 90.1145 8.976C90.3879 9.10023 90.633 9.28177 90.8341 9.50898C91.0352 9.73619 91.1878 10.0041 91.2822 10.2954C91.3765 10.5867 91.4106 10.8951 91.3821 11.2008C91.4111 11.5067 91.3775 11.8155 91.2834 12.1073C91.1892 12.3991 91.0367 12.6675 90.8356 12.8952C90.6344 13.1228 90.3891 13.3047 90.1155 13.4292C89.8418 13.5537 89.5458 13.618 89.2464 13.618C88.9471 13.618 88.6511 13.5537 88.3774 13.4292C88.1037 13.3047 87.8584 13.1228 87.6573 12.8952C87.4562 12.6675 87.3036 12.3991 87.2095 12.1073C87.1154 11.8155 87.0817 11.5067 87.1108 11.2008ZM90.4628 11.2008C90.4628 10.1926 90.0218 9.60305 89.2479 9.60305C88.471 9.60305 88.034 10.1926 88.034 11.2008C88.034 12.217 88.4711 12.802 89.2479 12.802C90.0218 12.802 90.4628 12.2129 90.4628 11.2008Z" fill="#007BFF"/>
<path d="M92.5792 8.87194H93.4395V9.61078H93.5063C93.6196 9.34542 93.8107 9.12297 94.053 8.97444C94.2952 8.8259 94.5765 8.75869 94.8578 8.78217C95.0781 8.76515 95.2994 8.79927 95.5051 8.882C95.7109 8.96473 95.8959 9.09395 96.0464 9.26008C96.197 9.4262 96.3092 9.62499 96.3748 9.84171C96.4403 10.0584 96.4576 10.2875 96.4252 10.512V13.5228H95.5315V10.7425C95.5315 9.99509 95.2153 9.62339 94.5543 9.62339C94.4047 9.61624 94.2553 9.64239 94.1165 9.70005C93.9776 9.75772 93.8526 9.84553 93.7498 9.95748C93.6471 10.0694 93.5692 10.2029 93.5214 10.3486C93.4736 10.4944 93.4571 10.6491 93.4729 10.802V13.5229H92.5792V8.87194Z" fill="#007BFF"/>
<path d="M101.478 7.71899V8.89811H102.459V9.67125H101.478V12.0628C101.478 12.55 101.673 12.7633 102.118 12.7633C102.232 12.7629 102.346 12.7558 102.459 12.7421V13.5067C102.299 13.5361 102.136 13.5518 101.973 13.5536C100.979 13.5536 100.583 13.1945 100.583 12.2978V9.67121H99.8643V8.89807H100.583V7.71899H101.478Z" fill="#007BFF"/>
<path d="M103.679 7.05884H104.565V9.62184H104.635C104.754 9.35399 104.951 9.13029 105.198 8.98119C105.445 8.8321 105.731 8.76488 106.016 8.78869C106.235 8.77644 106.455 8.81402 106.658 8.89876C106.861 8.9835 107.044 9.1133 107.193 9.27891C107.342 9.44452 107.454 9.64185 107.52 9.85682C107.586 10.0718 107.605 10.2991 107.576 10.5226V13.5253H106.681V10.749C106.681 10.0061 106.344 9.62989 105.713 9.62989C105.559 9.61696 105.405 9.63864 105.26 9.69344C105.116 9.74824 104.984 9.83482 104.876 9.94713C104.767 10.0594 104.684 10.1948 104.631 10.3436C104.579 10.4925 104.559 10.6513 104.573 10.809V13.5253H103.679L103.679 7.05884Z" fill="#007BFF"/>
<path d="M112.786 12.2726C112.664 12.6976 112.401 13.0653 112.042 13.3113C111.684 13.5573 111.252 13.6659 110.823 13.6181C110.525 13.6262 110.228 13.5675 109.954 13.4461C109.68 13.3247 109.435 13.1436 109.236 12.9152C109.037 12.6867 108.889 12.4166 108.802 12.1234C108.714 11.8303 108.69 11.5212 108.731 11.2175C108.692 10.913 108.716 10.6032 108.803 10.3091C108.89 10.0151 109.037 9.7437 109.235 9.5133C109.433 9.2829 109.677 9.09887 109.951 8.97368C110.224 8.84849 110.52 8.78506 110.819 8.78768C112.079 8.78768 112.84 9.67181 112.84 11.1323V11.4526H109.642V11.504C109.628 11.6747 109.649 11.8465 109.703 12.0084C109.757 12.1703 109.844 12.3187 109.958 12.4441C110.071 12.5696 110.209 12.6693 110.362 12.7368C110.516 12.8044 110.681 12.8383 110.848 12.8364C111.062 12.8627 111.278 12.8232 111.47 12.7228C111.662 12.6224 111.82 12.4657 111.925 12.2725L112.786 12.2726ZM109.642 10.7737H111.929C111.94 10.6176 111.92 10.4608 111.868 10.3134C111.817 10.166 111.737 10.0313 111.632 9.91778C111.527 9.80431 111.4 9.71466 111.259 9.65457C111.118 9.59448 110.967 9.56529 110.814 9.56888C110.66 9.56689 110.506 9.59669 110.363 9.65654C110.22 9.71639 110.09 9.80507 109.981 9.91736C109.871 10.0296 109.785 10.1633 109.727 10.3103C109.669 10.4574 109.64 10.615 109.642 10.7737H109.642Z" fill="#007BFF"/>
</svg>
