<svg width="120" height="26" viewBox="0 0 120 26" fill="none" xmlns="http://www.w3.org/2000/svg">
<path d="M54.1903 10.6977C53.3305 11.5898 52.9005 12.6654 52.9005 13.9251C52.9005 15.1942 53.3305 16.2745 54.1903 17.1666C55.0588 18.0491 56.1114 18.4906 57.3471 18.4906C58.583 18.4906 59.6309 18.0491 60.4906 17.1666C61.3594 16.2745 61.7937 15.1942 61.7937 13.9251C61.7937 12.6654 61.3594 11.5898 60.4906 10.6977C59.6218 9.80588 58.5741 9.35972 57.3471 9.35972C56.1114 9.35972 55.0588 9.80588 54.1903 10.6977ZM62.8148 8.31164C64.3282 9.86547 65.0854 11.7367 65.0854 13.9251V20.2009C65.0854 20.6698 64.9239 21.0608 64.6015 21.3731C64.2792 21.7041 63.8983 21.8699 63.4597 21.8699H63.4193C62.9804 21.8699 62.5999 21.7041 62.2775 21.3731C61.9549 21.0608 61.7937 20.6698 61.7937 20.2009C60.7729 21.3137 59.2906 21.8699 57.3471 21.8699C55.2155 21.8699 53.393 21.093 51.8796 19.5389C50.366 17.9852 49.6094 16.1137 49.6094 13.9251C49.6094 11.7367 50.366 9.86547 51.8796 8.31164C53.393 6.75768 55.2155 5.98064 57.3471 5.98064C59.4786 5.98064 61.3012 6.75768 62.8148 8.31164Z" fill="#007BFF"/>
<path d="M74.4557 5.98064C74.9036 5.98064 75.2888 6.14614 75.6112 6.47713C75.9247 6.80813 76.0812 7.2036 76.0812 7.66354V7.69071C76.0812 8.15089 75.9247 8.54148 75.6112 8.86346C75.2888 9.1941 74.9036 9.35984 74.4557 9.35984H73.6901C72.9556 9.35984 72.3333 9.62198 71.8229 10.1459C71.3211 10.6701 71.0659 11.3093 71.057 12.0633V20.2009C71.057 20.6698 70.8961 21.0609 70.5735 21.3731C70.2511 21.7043 69.8703 21.8698 69.4314 21.8698H69.3913C68.9523 21.8698 68.5718 21.7043 68.2492 21.3731C67.9271 21.0609 67.7656 20.6698 67.7656 20.2009V12.0633C67.7837 10.3805 68.3613 8.94597 69.4986 7.75993C70.654 6.57366 72.0513 5.98064 73.6901 5.98064H74.4557Z" fill="#007BFF"/>
<path d="M82.1435 10.6977C81.2837 11.5898 80.8538 12.6654 80.8538 13.9251C80.8538 15.1942 81.2837 16.2745 82.1435 17.1666C83.0122 18.0491 84.0646 18.4906 85.3005 18.4906C86.5364 18.4906 87.584 18.0491 88.444 17.1666C89.3125 16.2745 89.7471 15.1942 89.7471 13.9251C89.7471 12.6654 89.3125 11.5898 88.444 10.6977C87.5751 9.80588 86.5274 9.35972 85.3005 9.35972C84.0646 9.35972 83.0122 9.80588 82.1435 10.6977ZM90.7679 8.31164C92.2815 9.86547 93.0385 11.7367 93.0385 13.9251V20.2009C93.0385 20.6698 92.8771 21.0608 92.5547 21.3731C92.2323 21.7041 91.8515 21.8699 91.4129 21.8699H91.3727C90.9336 21.8699 90.5531 21.7041 90.2309 21.3731C89.9083 21.0608 89.7471 20.6698 89.7471 20.2009C88.726 21.3137 87.2437 21.8699 85.3005 21.8699C83.1689 21.8699 81.3463 21.093 79.8327 19.5389C78.3191 17.9852 77.5625 16.1137 77.5625 13.9251C77.5625 11.7367 78.3191 9.86547 79.8327 8.31164C81.3463 6.75768 83.1689 5.98064 85.3005 5.98064C87.4317 5.98064 89.2545 6.75768 90.7679 8.31164Z" fill="#007BFF"/>
<path d="M99.8972 9.35972C99.503 9.35972 99.1717 9.49767 98.9032 9.77371C98.6347 10.0588 98.5 10.3989 98.5 10.7942C98.5 11.3458 98.7598 11.7599 99.2792 12.0356C99.4584 12.137 100.206 12.3666 101.523 12.7251C102.589 13.0379 103.381 13.4472 103.901 13.9527C104.644 14.6793 105.016 15.7138 105.016 17.0564C105.016 18.3804 104.559 19.5161 103.645 20.463C102.723 21.4008 101.617 21.8699 100.327 21.8699H96.8207C96.3819 21.8699 96.0013 21.7041 95.679 21.3731C95.3565 21.0608 95.1953 20.6698 95.1953 20.2009V20.1733C95.1953 19.7135 95.3565 19.3183 95.679 18.9873C96.0013 18.6561 96.3819 18.4906 96.8207 18.4906H100.462C100.855 18.4906 101.187 18.3526 101.456 18.0767C101.724 17.801 101.859 17.4609 101.859 17.0564C101.859 16.5506 101.603 16.1688 101.093 15.9112C100.958 15.8472 100.206 15.6171 98.8359 15.2219C97.7701 14.8999 96.9775 14.477 96.458 13.9527C95.7146 13.208 95.3431 12.1552 95.3431 10.7942C95.3431 9.47013 95.7997 8.33918 96.7134 7.40127C97.6355 6.45422 98.7417 5.98064 100.032 5.98064H102.503C102.951 5.98064 103.337 6.14626 103.659 6.47713C103.981 6.80825 104.142 7.20372 104.142 7.66353V7.69083C104.142 8.15979 103.981 8.55062 103.659 8.86334C103.337 9.19422 102.951 9.35972 102.503 9.35972H99.8972Z" fill="#007BFF"/>
<path d="M108.822 0.323944C109.261 0.323944 109.641 0.484812 109.964 0.80667C110.286 1.13767 110.448 1.53313 110.448 1.99271V5.97894H112.463C112.902 5.97894 113.283 6.14444 113.604 6.47544C113.927 6.80643 114.088 7.2019 114.088 7.66184V7.68901C114.088 8.15809 113.927 8.54905 113.604 8.86176C113.283 9.19252 112.902 9.35802 112.463 9.35802H110.448V17.5373C110.448 17.8039 110.537 18.0293 110.716 18.2131C110.895 18.397 111.119 18.489 111.388 18.489H112.463C112.902 18.489 113.283 18.6545 113.604 18.9855C113.927 19.3166 114.088 19.7118 114.088 20.1715V20.1992C114.088 20.6681 113.927 21.0592 113.604 21.3716C113.283 21.7026 112.902 21.8681 112.463 21.8681H111.388C110.224 21.8681 109.225 21.4453 108.392 20.5992C107.568 19.7441 107.156 18.7236 107.156 17.5373V1.99271C107.156 1.53313 107.318 1.13767 107.64 0.80667C107.962 0.484812 108.343 0.323944 108.782 0.323944H108.822Z" fill="#007BFF"/>
<path d="M118.136 5.98088C118.593 5.98088 118.974 6.14638 119.279 6.47738C119.601 6.80838 119.762 7.20385 119.762 7.66378V20.2011C119.762 20.6701 119.601 21.0612 119.279 21.3734C118.974 21.7045 118.593 21.87 118.136 21.87H118.11C117.662 21.87 117.277 21.7045 116.954 21.3734C116.632 21.0612 116.471 20.6701 116.471 20.2011V7.66378C116.471 7.20385 116.632 6.80838 116.954 6.47738C117.277 6.14638 117.662 5.98088 118.11 5.98088H118.136ZM118.123 4.18769C117.604 4.18769 117.16 3.99953 116.793 3.62222C116.426 3.2454 116.242 2.79034 116.242 2.25679C116.242 1.73287 116.426 1.2822 116.793 0.905258C117.16 0.528193 117.604 0.339783 118.123 0.339783C118.634 0.339783 119.072 0.528193 119.439 0.905258C119.816 1.27294 120.004 1.72361 120.004 2.25679C120.004 2.79936 119.816 3.25466 119.439 3.62222C119.072 3.99953 118.634 4.18769 118.123 4.18769Z" fill="#007BFF"/>
<path d="M44.6707 16.0035C44.4843 16.3019 44.3067 16.6087 44.0831 16.86C43.633 17.3668 43.0765 17.786 42.474 18.0729C41.8194 18.3849 41.089 18.5496 40.3619 18.5496C37.5834 18.5496 35.323 16.2289 35.323 13.3765C35.323 10.5238 37.5834 8.20278 40.3619 8.20278C41.7234 8.20278 43.0472 8.78312 43.994 9.79452C44.2768 10.0966 44.5004 10.4481 44.7081 10.8073C44.8944 11.1296 45.0371 11.4608 45.3602 11.6653C45.7056 11.8837 46.1178 11.9857 46.5206 11.9993C47.1783 12.0213 48.1672 11.7639 48.2297 10.9431C48.251 10.6631 48.1237 10.4014 48.0186 10.151L47.9832 10.0657C47.8291 9.69361 47.6476 9.32995 47.4437 8.98396C47.0372 8.29577 46.5382 7.66972 45.9599 7.1235C44.7776 6.00681 43.3206 5.27206 41.7465 4.99858C41.292 4.91937 40.8262 4.87939 40.3619 4.87939C35.7985 4.87939 32.0859 8.69099 32.0859 13.3765C32.0859 18.0614 35.7985 21.8731 40.3619 21.8731C41.99 21.8731 43.5669 21.3858 44.9222 20.4636C46.2494 19.5605 47.2902 18.2957 47.9327 16.8058C47.9327 16.8058 47.9906 16.6763 47.9906 16.6761C48.208 16.1863 48.4138 15.6337 47.9971 15.1944C47.6811 14.8619 47.1669 14.7016 46.723 14.7067C46.2846 14.7116 45.8423 14.8396 45.4713 15.0802C45.1294 15.3019 44.8937 15.6466 44.6707 16.0035Z" fill="#007BFF"/>
<path d="M9.01437 23.3779C8.61293 23.1988 8.22419 22.9951 7.84993 22.7688C7.8434 22.7648 7.8364 22.761 7.82987 22.7571C7.82607 22.7548 7.82037 22.751 7.81396 22.7467C7.40979 22.5002 7.02248 22.2277 6.65475 21.9305C6.65475 21.9305 6.65475 21.9305 6.65463 21.9305C6.58139 21.8712 6.50911 21.8108 6.43729 21.7497C6.41735 21.7327 6.39777 21.7152 6.37794 21.6981C6.32619 21.6533 6.27479 21.6082 6.22387 21.5625C6.20001 21.5412 6.17639 21.5195 6.15289 21.4978C6.10624 21.4552 6.05995 21.4123 6.01389 21.3688C5.98956 21.3457 5.96534 21.3225 5.94113 21.2992C5.89591 21.2555 5.85116 21.2114 5.80652 21.1669C5.78362 21.1439 5.76047 21.121 5.73768 21.0978C5.69044 21.0498 5.64379 21.0011 5.59738 20.9522C5.5785 20.9324 5.55939 20.9127 5.54064 20.8926C5.47975 20.8274 5.41968 20.7616 5.36033 20.6948C5.35677 20.6908 5.35309 20.687 5.34965 20.683C5.28555 20.6109 5.22264 20.5376 5.16044 20.4639C5.14679 20.4476 5.1335 20.431 5.11997 20.4146C5.07296 20.3581 5.02632 20.3013 4.98038 20.2437C4.96079 20.2192 4.9418 20.1944 4.92245 20.1699C4.88293 20.1195 4.84364 20.0688 4.80494 20.0177C4.78453 19.9905 4.76411 19.963 4.74381 19.9357C4.70666 19.8857 4.6701 19.8355 4.6339 19.7848C4.61395 19.757 4.59401 19.7293 4.57431 19.7011C4.53751 19.6487 4.50131 19.5958 4.46546 19.5428C4.44778 19.5166 4.42985 19.4905 4.41228 19.4641C4.37169 19.4028 4.33169 19.3409 4.29216 19.2787C4.28053 19.2603 4.26842 19.2421 4.25691 19.2237C4.20551 19.1418 4.15506 19.0592 4.1058 18.976C4.10011 18.9661 4.09453 18.9562 4.08883 18.9464C4.04633 18.8738 4.00432 18.8008 3.96336 18.7272C3.94865 18.7009 3.9344 18.6742 3.91992 18.6477C3.88846 18.59 3.85725 18.5322 3.82674 18.474C3.8106 18.4428 3.79469 18.4115 3.77855 18.3803C3.75054 18.3256 3.72288 18.2705 3.6957 18.2151C3.67979 18.1825 3.66389 18.1497 3.64822 18.1169C3.62151 18.0612 3.59552 18.0053 3.56976 17.9491C3.55504 17.917 3.5402 17.885 3.52596 17.8527C3.49878 17.7921 3.47254 17.7311 3.44655 17.6699C3.43468 17.642 3.42245 17.6143 3.41082 17.5862C3.3758 17.5018 3.3415 17.4169 3.30838 17.3313C3.30672 17.3265 3.3047 17.3218 3.3028 17.3171C3.26779 17.2262 3.23408 17.1345 3.20143 17.0425C3.19206 17.0161 3.18327 16.9894 3.17402 16.9629C3.15134 16.8976 3.12903 16.832 3.10754 16.7662C3.09639 16.7322 3.08594 16.6981 3.07514 16.664C3.0565 16.6045 3.03799 16.545 3.02018 16.4852C3.0095 16.4489 2.99893 16.4124 2.98861 16.376C2.97175 16.3171 2.95549 16.2583 2.93958 16.1991C2.92973 16.1624 2.92 16.1256 2.9105 16.0886C2.89472 16.0275 2.87964 15.9659 2.86492 15.9043C2.85673 15.8698 2.84819 15.8354 2.84035 15.8007C2.82385 15.7289 2.80842 15.6566 2.79347 15.5842C2.78824 15.5597 2.78266 15.5355 2.7778 15.5109C2.75821 15.4138 2.73993 15.3164 2.72296 15.2184C2.71928 15.1966 2.71607 15.1745 2.71228 15.1527C2.69957 15.0765 2.68735 15.0001 2.67607 14.9234C2.67097 14.8881 2.66646 14.8528 2.66159 14.8173C2.65281 14.7533 2.64438 14.6891 2.63666 14.6247C2.63215 14.5859 2.62788 14.5469 2.62373 14.5079C2.61696 14.446 2.61067 14.3841 2.60497 14.322C2.60129 14.282 2.59797 14.2423 2.59464 14.2023C2.58954 14.1395 2.58515 14.0763 2.58111 14.0132C2.57862 13.9744 2.57601 13.9358 2.57387 13.8969C2.57019 13.8283 2.56746 13.7595 2.56497 13.6905C2.5639 13.6573 2.56224 13.6243 2.56141 13.591C2.55868 13.4889 2.5569 13.3864 2.5569 13.2837C2.5569 13.1808 2.55868 13.0785 2.56141 12.9763C2.56224 12.9431 2.5639 12.91 2.56497 12.8769C2.56746 12.8079 2.57019 12.7391 2.57387 12.6704C2.57601 12.6316 2.57862 12.5928 2.58111 12.5541C2.58515 12.491 2.58954 12.428 2.59464 12.3652C2.59785 12.3252 2.60129 12.2852 2.60509 12.2452C2.61067 12.1832 2.61696 12.1213 2.62373 12.0595C2.62788 12.0205 2.63215 11.9816 2.63666 11.9426C2.64438 11.8782 2.65281 11.8139 2.66159 11.7498C2.66646 11.7145 2.67097 11.6792 2.67607 11.6441C2.68723 11.5674 2.69957 11.4911 2.71228 11.4149C2.71595 11.393 2.71928 11.3708 2.72296 11.349C2.73993 11.251 2.75821 11.1534 2.7778 11.0563C2.78266 11.032 2.78824 11.008 2.79323 10.9838C2.8083 10.9111 2.82385 10.8387 2.84035 10.7667C2.84819 10.732 2.85673 10.6976 2.86492 10.6631C2.87964 10.6013 2.89472 10.5398 2.9105 10.4786C2.92 10.4417 2.92973 10.405 2.93958 10.3683C2.95549 10.3092 2.97163 10.2502 2.98849 10.1915C2.99893 10.1549 3.0095 10.1185 3.0203 10.0821C3.0381 10.0223 3.0565 9.96274 3.07514 9.90351C3.08582 9.86927 3.09639 9.83514 3.10754 9.80127C3.12903 9.73533 3.15146 9.66977 3.17402 9.60445C3.18327 9.57788 3.19206 9.55131 3.20143 9.52487C3.23408 9.43273 3.26779 9.34109 3.3028 9.25017C3.30447 9.24591 3.30625 9.24164 3.30791 9.23738C3.34126 9.15133 3.37557 9.0659 3.41082 8.98096C3.42245 8.95318 3.43456 8.92563 3.44631 8.89797C3.47231 8.83655 3.49866 8.77537 3.52596 8.71455C3.5402 8.68238 3.55504 8.65045 3.56976 8.6184C3.59552 8.5621 3.62151 8.50604 3.64822 8.45034C3.66389 8.41756 3.67979 8.38502 3.6957 8.35236C3.72288 8.29691 3.75066 8.24182 3.77867 8.18686C3.79469 8.15578 3.81048 8.12458 3.82674 8.09351C3.85725 8.03513 3.88858 7.97724 3.92016 7.91948C3.93452 7.89303 3.94865 7.86646 3.96336 7.84014C4.00455 7.76617 4.04669 7.69268 4.08954 7.61968C4.095 7.61042 4.10022 7.60091 4.1058 7.59153C4.15506 7.50817 4.20551 7.42542 4.25703 7.34352C4.2683 7.32536 4.28005 7.30781 4.29145 7.28978C4.33121 7.22726 4.37133 7.16486 4.41228 7.10319C4.42985 7.07687 4.44766 7.05091 4.46534 7.02471C4.50131 6.97158 4.53763 6.91856 4.57443 6.86604C4.59401 6.83825 4.61384 6.81046 4.63366 6.7828C4.6701 6.73198 4.70678 6.68165 4.74393 6.63144C4.76411 6.60426 4.78441 6.57708 4.80482 6.54991C4.84364 6.4986 4.88316 6.44766 4.92293 6.39696C4.94192 6.37259 4.96079 6.34809 4.98014 6.32396C5.02632 6.26595 5.07332 6.20867 5.12068 6.15188C5.13398 6.13592 5.14691 6.11971 5.16033 6.10374C5.22252 6.02977 5.28555 5.95652 5.34965 5.88425C5.35286 5.88072 5.35606 5.87719 5.35927 5.87365C5.41897 5.8065 5.47963 5.74008 5.54088 5.67452C5.55927 5.6549 5.57791 5.63552 5.59643 5.61602C5.64319 5.56666 5.69032 5.51755 5.73804 5.46917C5.76047 5.44626 5.78326 5.42371 5.80593 5.40092C5.8508 5.35632 5.89591 5.31183 5.94137 5.26796C5.96546 5.2448 5.98944 5.22177 6.01365 5.19886C6.05983 5.15523 6.10624 5.11209 6.15313 5.06919C6.17663 5.04774 6.20001 5.02617 6.22363 5.00497C6.27479 4.95902 6.32655 4.91369 6.37854 4.86872C6.39812 4.8519 6.41747 4.83459 6.43705 4.8179C7.24551 4.1286 8.15392 3.55898 9.13639 3.13549C9.16749 3.10941 9.19895 3.08381 9.22921 3.05639C10.3617 2.03281 9.15075 0.805948 7.8929 1.0124C7.01096 1.1573 6.17259 1.73423 5.46467 2.26375C4.91355 2.67604 4.39329 3.13183 3.90995 3.62565C2.94077 4.61584 2.12127 5.75897 1.49027 7.00424C0.510644 8.93782 0 11.1047 0 13.2837C0 16.1796 0.910185 19.0344 2.58515 21.3649C3.14766 22.1476 3.79161 22.8684 4.5025 23.5114C4.86346 23.8378 5.24152 24.1441 5.63465 24.4287C6.42222 24.9984 7.50309 25.6354 8.48758 25.7396C9.3396 25.8297 10.3779 25.2687 9.86651 24.2127C9.68549 23.8389 9.36916 23.5858 9.01437 23.3779Z" fill="#007BFF"/>
<path d="M13.2681 16.7919C11.4328 16.7919 9.94496 15.2644 9.94496 13.38C9.94496 11.4957 11.4328 9.96817 13.2681 9.96817C15.1034 9.96817 16.5912 11.4957 16.5912 13.38C16.5912 15.2644 15.1034 16.7919 13.2681 16.7919ZM25.0708 7.08145C24.1297 5.21246 22.7643 3.5766 21.1116 2.3328C20.2974 1.72004 18.3267 0.404822 17.3699 1.39416C17.2972 1.46935 17.2397 1.55734 17.1969 1.65289C17.1094 1.84825 17.0836 2.07529 17.117 2.28905C17.19 2.75703 17.4625 3.09132 17.8073 3.36272C18.7922 3.83655 19.7076 4.46418 20.522 5.2333C21.2709 5.94075 21.9173 6.75143 22.4436 7.64266C22.7081 8.09077 22.9431 8.56204 23.1422 9.04343L23.1906 9.15932C23.3967 9.65034 23.653 10.2615 23.426 10.8888C23.1323 11.6992 22.2802 11.9525 21.613 11.8452C21.2214 11.7822 20.8595 11.6045 20.5663 11.3314C20.2263 11.0148 20.0325 10.5563 19.8616 10.152C19.7797 9.95818 19.7023 9.77501 19.6156 9.61889C19.3019 9.05342 18.9422 8.55241 18.5466 8.12965C17.1727 6.66161 15.2512 5.81961 13.2746 5.81961C9.24178 5.81961 5.96094 9.18821 5.96094 13.3287C5.96094 17.4691 9.24178 20.8377 13.2746 20.8377C14.3296 20.8377 15.39 20.5982 16.3412 20.1453C17.2156 19.7288 18.023 19.1203 18.676 18.3858C19.003 18.0179 19.2956 17.6155 19.5453 17.1896C19.6441 17.0213 19.7273 16.8332 19.8156 16.6341C19.8489 16.5589 19.8823 16.4836 19.9166 16.409C20.0238 16.1762 20.1596 15.9066 20.3537 15.6711C20.9256 14.9775 21.8571 14.7325 22.6188 15.0756C22.9944 15.2448 23.2771 15.5458 23.4147 15.9231C23.6351 16.5277 23.3708 17.114 23.1584 17.5849C23.1304 17.6472 23.1029 17.7084 23.077 17.7681C22.245 19.6975 20.8968 21.3356 19.1782 22.505C18.9471 22.6622 18.7108 22.8091 18.4702 22.9467C18.2434 23.0855 17.9903 23.2455 17.8427 23.3803C17.3832 23.7999 16.8782 24.3827 17.1264 25.0673C17.4536 25.9701 18.5231 25.7642 19.2202 25.4853C20.1378 25.1184 20.9544 24.4853 21.7023 23.8533C22.4926 23.1853 23.2077 22.424 23.8288 21.5886C25.0924 19.8893 25.9568 17.8888 26.3298 15.7854C26.4735 14.9753 26.545 14.152 26.545 13.3287C26.545 11.1619 26.0401 9.00687 25.0708 7.08145Z" fill="#007BFF"/>
</svg>
